<?xml version="1.0" encoding="UTF-8" standalone="no"?>
<!DOCTYPE svg PUBLIC "-//W3C//DTD SVG 1.1//EN"
 "http://www.w3.org/Graphics/SVG/1.1/DTD/svg11.dtd">
<!-- Generated by graphviz version 14.0.1 (20251006.0113)
 -->
<!-- Title: G Pages: 1 -->
<svg width="807pt" height="1001pt"
 viewBox="0.00 0.00 807.00 1001.00" xmlns="http://www.w3.org/2000/svg" xmlns:xlink="http://www.w3.org/1999/xlink">
<g id="graph0" class="graph" transform="scale(1 1) rotate(0) translate(21.6 979.35)">
<title>G</title>
<polygon fill="#111111" stroke="none" points="-21.6,21.6 -21.6,-979.35 785.1,-979.35 785.1,21.6 -21.6,21.6"/>
<!-- App.js -->
<g id="node1" class="node">
<title>App.js</title>
<path fill="none" stroke="#c6c5fe" d="M148.58,-54.75C148.58,-54.75 110.42,-54.75 110.42,-54.75 106.46,-54.75 102.5,-50.79 102.5,-46.83 102.5,-46.83 102.5,-38.92 102.5,-38.92 102.5,-34.96 106.46,-31 110.42,-31 110.42,-31 148.58,-31 148.58,-31 152.54,-31 156.5,-34.96 156.5,-38.92 156.5,-38.92 156.5,-46.83 156.5,-46.83 156.5,-50.79 152.54,-54.75 148.58,-54.75"/>
<text xml:space="preserve" text-anchor="middle" x="129.5" y="-37.45" font-family="Arial" font-size="14.00" fill="#c6c5fe">App.js</text>
</g>
<!-- components/RecipientForm.js -->
<g id="node2" class="node">
<title>components/RecipientForm.js</title>
<path fill="none" stroke="#cfffac" d="M508.21,-65.75C508.21,-65.75 328.04,-65.75 328.04,-65.75 324.08,-65.75 320.12,-61.79 320.12,-57.83 320.12,-57.83 320.12,-49.92 320.12,-49.92 320.12,-45.96 324.08,-42 328.04,-42 328.04,-42 508.21,-42 508.21,-42 512.17,-42 516.12,-45.96 516.12,-49.92 516.12,-49.92 516.12,-57.83 516.12,-57.83 516.12,-61.79 512.17,-65.75 508.21,-65.75"/>
<text xml:space="preserve" text-anchor="middle" x="418.12" y="-48.45" font-family="Arial" font-size="14.00" fill="#cfffac">components/RecipientForm.js</text>
</g>
<!-- App.js&#45;&gt;components/RecipientForm.js -->
<g id="edge1" class="edge">
<title>App.js&#45;&gt;components/RecipientForm.js</title>
<path fill="none" stroke="#757575" d="M156.95,-43.89C191.37,-45.21 253.63,-47.6 308.61,-49.71"/>
<polygon fill="#757575" stroke="#757575" points="308.22,-53.2 318.35,-50.08 308.49,-46.2 308.22,-53.2"/>
</g>
<!-- components/RecipientOnboarding.js -->
<g id="node3" class="node">
<title>components/RecipientOnboarding.js</title>
<path fill="none" stroke="#cfffac" d="M527.71,-23.75C527.71,-23.75 308.54,-23.75 308.54,-23.75 304.58,-23.75 300.62,-19.79 300.62,-15.83 300.62,-15.83 300.62,-7.92 300.62,-7.92 300.62,-3.96 304.58,0 308.54,0 308.54,0 527.71,0 527.71,0 531.67,0 535.62,-3.96 535.62,-7.92 535.62,-7.92 535.62,-15.83 535.62,-15.83 535.62,-19.79 531.67,-23.75 527.71,-23.75"/>
<text xml:space="preserve" text-anchor="middle" x="418.12" y="-6.45" font-family="Arial" font-size="14.00" fill="#cfffac">components/RecipientOnboarding.js</text>
</g>
<!-- App.js&#45;&gt;components/RecipientOnboarding.js -->
<g id="edge2" class="edge">
<title>App.js&#45;&gt;components/RecipientOnboarding.js</title>
<path fill="none" stroke="#757575" d="M156.95,-40.01C187.87,-36.67 241.25,-30.9 291.65,-25.45"/>
<polygon fill="#757575" stroke="#757575" points="291.95,-28.93 301.51,-24.38 291.2,-21.97 291.95,-28.93"/>
</g>
<!-- App.tsx -->
<g id="node4" class="node">
<title>App.tsx</title>
<path fill="none" stroke="#c6c5fe" d="M440.71,-117.75C440.71,-117.75 395.54,-117.75 395.54,-117.75 391.58,-117.75 387.62,-113.79 387.62,-109.83 387.62,-109.83 387.62,-101.92 387.62,-101.92 387.62,-97.96 391.58,-94 395.54,-94 395.54,-94 440.71,-94 440.71,-94 444.67,-94 448.62,-97.96 448.62,-101.92 448.62,-101.92 448.62,-109.83 448.62,-109.83 448.62,-113.79 444.67,-117.75 440.71,-117.75"/>
<text xml:space="preserve" text-anchor="middle" x="418.12" y="-100.45" font-family="Arial" font-size="14.00" fill="#c6c5fe">App.tsx</text>
</g>
<!-- pages/login.tsx -->
<g id="node5" class="node">
<title>pages/login.tsx</title>
<path fill="none" stroke="#cfffac" d="M715.46,-128.75C715.46,-128.75 625.29,-128.75 625.29,-128.75 621.33,-128.75 617.38,-124.79 617.38,-120.83 617.38,-120.83 617.38,-112.92 617.38,-112.92 617.38,-108.96 621.33,-105 625.29,-105 625.29,-105 715.46,-105 715.46,-105 719.42,-105 723.38,-108.96 723.38,-112.92 723.38,-112.92 723.38,-120.83 723.38,-120.83 723.38,-124.79 719.42,-128.75 715.46,-128.75"/>
<text xml:space="preserve" text-anchor="middle" x="670.38" y="-111.45" font-family="Arial" font-size="14.00" fill="#cfffac">pages/login.tsx</text>
</g>
<!-- App.tsx&#45;&gt;pages/login.tsx -->
<g id="edge3" class="edge">
<title>App.tsx&#45;&gt;pages/login.tsx</title>
<path fill="none" stroke="#757575" d="M448.81,-107.18C487.25,-108.87 555.27,-111.86 605.64,-114.07"/>
<polygon fill="#757575" stroke="#757575" points="605.41,-117.57 615.55,-114.51 605.72,-110.57 605.41,-117.57"/>
</g>
<!-- pages/signup.tsx -->
<g id="node6" class="node">
<title>pages/signup.tsx</title>
<path fill="none" stroke="#cfffac" d="M721.08,-86.75C721.08,-86.75 619.67,-86.75 619.67,-86.75 615.71,-86.75 611.75,-82.79 611.75,-78.83 611.75,-78.83 611.75,-70.92 611.75,-70.92 611.75,-66.96 615.71,-63 619.67,-63 619.67,-63 721.08,-63 721.08,-63 725.04,-63 729,-66.96 729,-70.92 729,-70.92 729,-78.83 729,-78.83 729,-82.79 725.04,-86.75 721.08,-86.75"/>
<text xml:space="preserve" text-anchor="middle" x="670.38" y="-69.45" font-family="Arial" font-size="14.00" fill="#cfffac">pages/signup.tsx</text>
</g>
<!-- App.tsx&#45;&gt;pages/signup.tsx -->
<g id="edge4" class="edge">
<title>App.tsx&#45;&gt;pages/signup.tsx</title>
<path fill="none" stroke="#757575" d="M448.81,-102.2C485.93,-97.6 550.63,-89.59 600.38,-83.42"/>
<polygon fill="#757575" stroke="#757575" points="600.72,-86.91 610.22,-82.2 599.86,-79.96 600.72,-86.91"/>
</g>
<!-- components/ComplianceDashboard.js -->
<g id="node7" class="node">
<title>components/ComplianceDashboard.js</title>
<path fill="none" stroke="#cfffac" d="M244.33,-159.75C244.33,-159.75 14.67,-159.75 14.67,-159.75 10.71,-159.75 6.75,-155.79 6.75,-151.83 6.75,-151.83 6.75,-143.92 6.75,-143.92 6.75,-139.96 10.71,-136 14.67,-136 14.67,-136 244.33,-136 244.33,-136 248.29,-136 252.25,-139.96 252.25,-143.92 252.25,-143.92 252.25,-151.83 252.25,-151.83 252.25,-155.79 248.29,-159.75 244.33,-159.75"/>
<text xml:space="preserve" text-anchor="middle" x="129.5" y="-142.45" font-family="Arial" font-size="14.00" fill="#cfffac">components/ComplianceDashboard.js</text>
</g>
<!-- components/FallbackTester.js -->
<g id="node8" class="node">
<title>components/FallbackTester.js</title>
<path fill="none" stroke="#c6c5fe" d="M507.08,-285.75C507.08,-285.75 329.17,-285.75 329.17,-285.75 325.21,-285.75 321.25,-281.79 321.25,-277.83 321.25,-277.83 321.25,-269.92 321.25,-269.92 321.25,-265.96 325.21,-262 329.17,-262 329.17,-262 507.08,-262 507.08,-262 511.04,-262 515,-265.96 515,-269.92 515,-269.92 515,-277.83 515,-277.83 515,-281.79 511.04,-285.75 507.08,-285.75"/>
<text xml:space="preserve" text-anchor="middle" x="418.12" y="-268.45" font-family="Arial" font-size="14.00" fill="#c6c5fe">components/FallbackTester.js</text>
</g>
<!-- protocol/FeeAttribution.js -->
<g id="node9" class="node">
<title>protocol/FeeAttribution.js</title>
<path fill="none" stroke="#cfffac" d="M745.08,-285.75C745.08,-285.75 595.67,-285.75 595.67,-285.75 591.71,-285.75 587.75,-281.79 587.75,-277.83 587.75,-277.83 587.75,-269.92 587.75,-269.92 587.75,-265.96 591.71,-262 595.67,-262 595.67,-262 745.08,-262 745.08,-262 749.04,-262 753,-265.96 753,-269.92 753,-269.92 753,-277.83 753,-277.83 753,-281.79 749.04,-285.75 745.08,-285.75"/>
<text xml:space="preserve" text-anchor="middle" x="670.38" y="-268.45" font-family="Arial" font-size="14.00" fill="#cfffac">protocol/FeeAttribution.js</text>
</g>
<!-- components/FallbackTester.js&#45;&gt;protocol/FeeAttribution.js -->
<g id="edge5" class="edge">
<title>components/FallbackTester.js&#45;&gt;protocol/FeeAttribution.js</title>
<path fill="none" stroke="#757575" d="M515.16,-273.88C535.19,-273.88 556.27,-273.88 576.19,-273.88"/>
<polygon fill="#757575" stroke="#757575" points="575.93,-277.38 585.93,-273.88 575.93,-270.38 575.93,-277.38"/>
</g>
<!-- components/FallbackUXDemo.js -->
<g id="node10" class="node">
<title>components/FallbackUXDemo.js</title>
<path fill="none" stroke="#c6c5fe" d="M516.83,-243.75C516.83,-243.75 319.42,-243.75 319.42,-243.75 315.46,-243.75 311.5,-239.79 311.5,-235.83 311.5,-235.83 311.5,-227.92 311.5,-227.92 311.5,-223.96 315.46,-220 319.42,-220 319.42,-220 516.83,-220 516.83,-220 520.79,-220 524.75,-223.96 524.75,-227.92 524.75,-227.92 524.75,-235.83 524.75,-235.83 524.75,-239.79 520.79,-243.75 516.83,-243.75"/>
<text xml:space="preserve" text-anchor="middle" x="418.12" y="-226.45" font-family="Arial" font-size="14.00" fill="#c6c5fe">components/FallbackUXDemo.js</text>
</g>
<!-- components/FallbackUXDemo.js&#45;&gt;protocol/FeeAttribution.js -->
<g id="edge6" class="edge">
<title>components/FallbackUXDemo.js&#45;&gt;protocol/FeeAttribution.js</title>
<path fill="none" stroke="#757575" d="M492.85,-244.25C521.62,-249.08 554.77,-254.64 584.52,-259.63"/>
<polygon fill="#757575" stroke="#757575" points="583.81,-263.06 594.25,-261.27 584.96,-256.16 583.81,-263.06"/>
</g>
<!-- components/Footer.js -->
<g id="node11" class="node">
<title>components/Footer.js</title>
<path fill="none" stroke="#cfffac" d="M194.46,-327.75C194.46,-327.75 64.54,-327.75 64.54,-327.75 60.58,-327.75 56.62,-323.79 56.62,-319.83 56.62,-319.83 56.62,-311.92 56.62,-311.92 56.62,-307.96 60.58,-304 64.54,-304 64.54,-304 194.46,-304 194.46,-304 198.42,-304 202.38,-307.96 202.38,-311.92 202.38,-311.92 202.38,-319.83 202.38,-319.83 202.38,-323.79 198.42,-327.75 194.46,-327.75"/>
<text xml:space="preserve" text-anchor="middle" x="129.5" y="-310.45" font-family="Arial" font-size="14.00" fill="#cfffac">components/Footer.js</text>
</g>
<!-- components/GatewayBadge.js -->
<g id="node12" class="node">
<title>components/GatewayBadge.js</title>
<path fill="none" stroke="#cfffac" d="M221.83,-369.75C221.83,-369.75 37.17,-369.75 37.17,-369.75 33.21,-369.75 29.25,-365.79 29.25,-361.83 29.25,-361.83 29.25,-353.92 29.25,-353.92 29.25,-349.96 33.21,-346 37.17,-346 37.17,-346 221.83,-346 221.83,-346 225.79,-346 229.75,-349.96 229.75,-353.92 229.75,-353.92 229.75,-361.83 229.75,-361.83 229.75,-365.79 225.79,-369.75 221.83,-369.75"/>
<text xml:space="preserve" text-anchor="middle" x="129.5" y="-352.45" font-family="Arial" font-size="14.00" fill="#cfffac">components/GatewayBadge.js</text>
</g>
<!-- components/GatewayDashboard.js -->
<g id="node13" class="node">
<title>components/GatewayDashboard.js</title>
<path fill="none" stroke="#cfffac" d="M235.33,-411.75C235.33,-411.75 23.67,-411.75 23.67,-411.75 19.71,-411.75 15.75,-407.79 15.75,-403.83 15.75,-403.83 15.75,-395.92 15.75,-395.92 15.75,-391.96 19.71,-388 23.67,-388 23.67,-388 235.33,-388 235.33,-388 239.29,-388 243.25,-391.96 243.25,-395.92 243.25,-395.92 243.25,-403.83 243.25,-403.83 243.25,-407.79 239.29,-411.75 235.33,-411.75"/>
<text xml:space="preserve" text-anchor="middle" x="129.5" y="-394.45" font-family="Arial" font-size="14.00" fill="#cfffac">components/GatewayDashboard.js</text>
</g>
<!-- components/MultiSenderDashboard.js -->
<g id="node14" class="node">
<title>components/MultiSenderDashboard.js</title>
<path fill="none" stroke="#c6c5fe" d="M533.33,-369.75C533.33,-369.75 302.92,-369.75 302.92,-369.75 298.96,-369.75 295,-365.79 295,-361.83 295,-361.83 295,-353.92 295,-353.92 295,-349.96 298.96,-346 302.92,-346 302.92,-346 533.33,-346 533.33,-346 537.29,-346 541.25,-349.96 541.25,-353.92 541.25,-353.92 541.25,-361.83 541.25,-361.83 541.25,-365.79 537.29,-369.75 533.33,-369.75"/>
<text xml:space="preserve" text-anchor="middle" x="418.12" y="-352.45" font-family="Arial" font-size="14.00" fill="#c6c5fe">components/MultiSenderDashboard.js</text>
</g>
<!-- components/MultiSenderDashboard.js&#45;&gt;protocol/FeeAttribution.js -->
<g id="edge7" class="edge">
<title>components/MultiSenderDashboard.js&#45;&gt;protocol/FeeAttribution.js</title>
<path fill="none" stroke="#757575" d="M508.56,-345.56C519.69,-343.13 530.81,-340.26 541.25,-336.88 576.48,-325.45 614.23,-305.9 639.56,-291.6"/>
<polygon fill="#757575" stroke="#757575" points="641.04,-294.79 647.97,-286.78 637.55,-288.72 641.04,-294.79"/>
</g>
<!-- components/RoutingFlow.js -->
<g id="node15" class="node">
<title>components/RoutingFlow.js</title>
<path fill="none" stroke="#cfffac" d="M212.46,-453.75C212.46,-453.75 46.54,-453.75 46.54,-453.75 42.58,-453.75 38.62,-449.79 38.62,-445.83 38.62,-445.83 38.62,-437.92 38.62,-437.92 38.62,-433.96 42.58,-430 46.54,-430 46.54,-430 212.46,-430 212.46,-430 216.42,-430 220.38,-433.96 220.38,-437.92 220.38,-437.92 220.38,-445.83 220.38,-445.83 220.38,-449.79 216.42,-453.75 212.46,-453.75"/>
<text xml:space="preserve" text-anchor="middle" x="129.5" y="-436.45" font-family="Arial" font-size="14.00" fill="#cfffac">components/RoutingFlow.js</text>
</g>
<!-- components/SenderDashboard.js -->
<g id="node16" class="node">
<title>components/SenderDashboard.js</title>
<path fill="none" stroke="#c6c5fe" d="M230.08,-285.75C230.08,-285.75 28.92,-285.75 28.92,-285.75 24.96,-285.75 21,-281.79 21,-277.83 21,-277.83 21,-269.92 21,-269.92 21,-265.96 24.96,-262 28.92,-262 28.92,-262 230.08,-262 230.08,-262 234.04,-262 238,-265.96 238,-269.92 238,-269.92 238,-277.83 238,-277.83 238,-281.79 234.04,-285.75 230.08,-285.75"/>
<text xml:space="preserve" text-anchor="middle" x="129.5" y="-268.45" font-family="Arial" font-size="14.00" fill="#c6c5fe">components/SenderDashboard.js</text>
</g>
<!-- protocol/delivery/DeliverySimulator.js -->
<g id="node17" class="node">
<title>protocol/delivery/DeliverySimulator.js</title>
<path fill="none" stroke="#c6c5fe" d="M528.83,-201.75C528.83,-201.75 307.42,-201.75 307.42,-201.75 303.46,-201.75 299.5,-197.79 299.5,-193.83 299.5,-193.83 299.5,-185.92 299.5,-185.92 299.5,-181.96 303.46,-178 307.42,-178 307.42,-178 528.83,-178 528.83,-178 532.79,-178 536.75,-181.96 536.75,-185.92 536.75,-185.92 536.75,-193.83 536.75,-193.83 536.75,-197.79 532.79,-201.75 528.83,-201.75"/>
<text xml:space="preserve" text-anchor="middle" x="418.12" y="-184.45" font-family="Arial" font-size="14.00" fill="#c6c5fe">protocol/delivery/DeliverySimulator.js</text>
</g>
<!-- components/SenderDashboard.js&#45;&gt;protocol/delivery/DeliverySimulator.js -->
<g id="edge8" class="edge">
<title>components/SenderDashboard.js&#45;&gt;protocol/delivery/DeliverySimulator.js</title>
<path fill="none" stroke="#757575" d="M157.6,-261.61C189.77,-247.5 245.31,-224.52 295,-210.88 303.55,-208.53 312.52,-206.39 321.55,-204.46"/>
<polygon fill="#757575" stroke="#757575" points="321.98,-207.94 331.08,-202.5 320.58,-201.08 321.98,-207.94"/>
</g>
<!-- protocol/delivery/FallbackUX.js -->
<g id="node18" class="node">
<title>protocol/delivery/FallbackUX.js</title>
<path fill="none" stroke="#c6c5fe" d="M510.46,-327.75C510.46,-327.75 325.79,-327.75 325.79,-327.75 321.83,-327.75 317.88,-323.79 317.88,-319.83 317.88,-319.83 317.88,-311.92 317.88,-311.92 317.88,-307.96 321.83,-304 325.79,-304 325.79,-304 510.46,-304 510.46,-304 514.42,-304 518.38,-307.96 518.38,-311.92 518.38,-311.92 518.38,-319.83 518.38,-319.83 518.38,-323.79 514.42,-327.75 510.46,-327.75"/>
<text xml:space="preserve" text-anchor="middle" x="418.12" y="-310.45" font-family="Arial" font-size="14.00" fill="#c6c5fe">protocol/delivery/FallbackUX.js</text>
</g>
<!-- components/SenderDashboard.js&#45;&gt;protocol/delivery/FallbackUX.js -->
<g id="edge9" class="edge">
<title>components/SenderDashboard.js&#45;&gt;protocol/delivery/FallbackUX.js</title>
<path fill="none" stroke="#757575" d="M214.95,-286.25C248.47,-291.16 287.2,-296.84 321.73,-301.9"/>
<polygon fill="#757575" stroke="#757575" points="320.89,-305.31 331.29,-303.3 321.9,-298.38 320.89,-305.31"/>
</g>
<!-- protocol/delivery/DeliverySimulator.js&#45;&gt;protocol/FeeAttribution.js -->
<g id="edge14" class="edge">
<title>protocol/delivery/DeliverySimulator.js&#45;&gt;protocol/FeeAttribution.js</title>
<path fill="none" stroke="#757575" d="M508.56,-202.19C519.69,-204.62 530.81,-207.49 541.25,-210.88 576.48,-222.3 614.23,-241.85 639.56,-256.15"/>
<polygon fill="#757575" stroke="#757575" points="637.55,-259.03 647.97,-260.97 641.04,-252.96 637.55,-259.03"/>
</g>
<!-- protocol/audit/AuditLogger.js -->
<g id="node22" class="node">
<title>protocol/audit/AuditLogger.js</title>
<path fill="none" stroke="#cfffac" d="M755.58,-181.75C755.58,-181.75 585.17,-181.75 585.17,-181.75 581.21,-181.75 577.25,-177.79 577.25,-173.83 577.25,-173.83 577.25,-165.92 577.25,-165.92 577.25,-161.96 581.21,-158 585.17,-158 585.17,-158 755.58,-158 755.58,-158 759.54,-158 763.5,-161.96 763.5,-165.92 763.5,-165.92 763.5,-173.83 763.5,-173.83 763.5,-177.79 759.54,-181.75 755.58,-181.75"/>
<text xml:space="preserve" text-anchor="middle" x="670.38" y="-164.45" font-family="Arial" font-size="14.00" fill="#cfffac">protocol/audit/AuditLogger.js</text>
</g>
<!-- protocol/delivery/DeliverySimulator.js&#45;&gt;protocol/audit/AuditLogger.js -->
<g id="edge15" class="edge">
<title>protocol/delivery/DeliverySimulator.js&#45;&gt;protocol/audit/AuditLogger.js</title>
<path fill="none" stroke="#757575" d="M536.92,-180.46C546.48,-179.7 556.09,-178.93 565.53,-178.17"/>
<polygon fill="#757575" stroke="#757575" points="565.75,-181.67 575.44,-177.38 565.2,-174.69 565.75,-181.67"/>
</g>
<!-- protocol/delivery/FallbackUX.js&#45;&gt;protocol/FeeAttribution.js -->
<g id="edge16" class="edge">
<title>protocol/delivery/FallbackUX.js&#45;&gt;protocol/FeeAttribution.js</title>
<path fill="none" stroke="#757575" d="M492.85,-303.5C521.62,-298.67 554.77,-293.11 584.52,-288.12"/>
<polygon fill="#757575" stroke="#757575" points="584.96,-291.59 594.25,-286.48 583.81,-284.69 584.96,-291.59"/>
</g>
<!-- components/TransactionHistory.js -->
<g id="node19" class="node">
<title>components/TransactionHistory.js</title>
<path fill="none" stroke="#cfffac" d="M231.21,-495.75C231.21,-495.75 27.79,-495.75 27.79,-495.75 23.83,-495.75 19.88,-491.79 19.88,-487.83 19.88,-487.83 19.88,-479.92 19.88,-479.92 19.88,-475.96 23.83,-472 27.79,-472 27.79,-472 231.21,-472 231.21,-472 235.17,-472 239.12,-475.96 239.12,-479.92 239.12,-479.92 239.12,-487.83 239.12,-487.83 239.12,-491.79 235.17,-495.75 231.21,-495.75"/>
<text xml:space="preserve" text-anchor="middle" x="129.5" y="-478.45" font-family="Arial" font-size="14.00" fill="#cfffac">components/TransactionHistory.js</text>
</g>
<!-- components/TransactionResult.js -->
<g id="node20" class="node">
<title>components/TransactionResult.js</title>
<path fill="none" stroke="#cfffac" d="M229.71,-537.75C229.71,-537.75 29.29,-537.75 29.29,-537.75 25.33,-537.75 21.38,-533.79 21.38,-529.83 21.38,-529.83 21.38,-521.92 21.38,-521.92 21.38,-517.96 25.33,-514 29.29,-514 29.29,-514 229.71,-514 229.71,-514 233.67,-514 237.62,-517.96 237.62,-521.92 237.62,-521.92 237.62,-529.83 237.62,-529.83 237.62,-533.79 233.67,-537.75 229.71,-537.75"/>
<text xml:space="preserve" text-anchor="middle" x="129.5" y="-520.45" font-family="Arial" font-size="14.00" fill="#cfffac">components/TransactionResult.js</text>
</g>
<!-- components/UnifiedSenderDashboard.js -->
<g id="node21" class="node">
<title>components/UnifiedSenderDashboard.js</title>
<path fill="none" stroke="#c6c5fe" d="M251.08,-201.75C251.08,-201.75 7.92,-201.75 7.92,-201.75 3.96,-201.75 0,-197.79 0,-193.83 0,-193.83 0,-185.92 0,-185.92 0,-181.96 3.96,-178 7.92,-178 7.92,-178 251.08,-178 251.08,-178 255.04,-178 259,-181.96 259,-185.92 259,-185.92 259,-193.83 259,-193.83 259,-197.79 255.04,-201.75 251.08,-201.75"/>
<text xml:space="preserve" text-anchor="middle" x="129.5" y="-184.45" font-family="Arial" font-size="14.00" fill="#c6c5fe">components/UnifiedSenderDashboard.js</text>
</g>
<!-- components/UnifiedSenderDashboard.js&#45;&gt;protocol/delivery/DeliverySimulator.js -->
<g id="edge11" class="edge">
<title>components/UnifiedSenderDashboard.js&#45;&gt;protocol/delivery/DeliverySimulator.js</title>
<path fill="none" stroke="#757575" d="M259.14,-189.88C268.77,-189.88 278.48,-189.88 288.11,-189.88"/>
<polygon fill="#757575" stroke="#757575" points="287.85,-193.38 297.85,-189.88 287.85,-186.38 287.85,-193.38"/>
</g>
<!-- components/UnifiedSenderDashboard.js&#45;&gt;protocol/delivery/FallbackUX.js -->
<g id="edge12" class="edge">
<title>components/UnifiedSenderDashboard.js&#45;&gt;protocol/delivery/FallbackUX.js</title>
<path fill="none" stroke="#757575" d="M164.84,-202.25C192.04,-213.06 230.12,-230.51 259,-252.88 278.44,-267.93 273.62,-282.74 295,-294.88 298.84,-297.05 302.84,-299.02 306.97,-300.79"/>
<polygon fill="#757575" stroke="#757575" points="305.42,-303.94 316.01,-304.26 307.93,-297.41 305.42,-303.94"/>
</g>
<!-- components/UnifiedSenderDashboard.js&#45;&gt;protocol/audit/AuditLogger.js -->
<g id="edge10" class="edge">
<title>components/UnifiedSenderDashboard.js&#45;&gt;protocol/audit/AuditLogger.js</title>
<path fill="none" stroke="#757575" d="M211.05,-177.52C237.7,-173.98 267.56,-170.62 295,-168.88 404.22,-161.93 431.81,-168.45 541.25,-168.88 549.2,-168.91 557.43,-168.95 565.71,-169"/>
<polygon fill="#757575" stroke="#757575" points="565.46,-172.5 575.48,-169.06 565.51,-165.5 565.46,-172.5"/>
</g>
<!-- main.js -->
<g id="node23" class="node">
<title>main.js</title>
<path fill="none" stroke="#c6c5fe" d="M151.33,-117.75C151.33,-117.75 107.67,-117.75 107.67,-117.75 103.71,-117.75 99.75,-113.79 99.75,-109.83 99.75,-109.83 99.75,-101.92 99.75,-101.92 99.75,-97.96 103.71,-94 107.67,-94 107.67,-94 151.33,-94 151.33,-94 155.29,-94 159.25,-97.96 159.25,-101.92 159.25,-101.92 159.25,-109.83 159.25,-109.83 159.25,-113.79 155.29,-117.75 151.33,-117.75"/>
<text xml:space="preserve" text-anchor="middle" x="129.5" y="-100.45" font-family="Arial" font-size="14.00" fill="#c6c5fe">main.js</text>
</g>
<!-- main.js&#45;&gt;App.tsx -->
<g id="edge13" class="edge">
<title>main.js&#45;&gt;App.tsx</title>
<path fill="none" stroke="#757575" d="M159.56,-105.88C210.69,-105.88 316.87,-105.88 375.68,-105.88"/>
<polygon fill="#757575" stroke="#757575" points="375.61,-109.38 385.61,-105.88 375.61,-102.38 375.61,-109.38"/>
</g>
<!-- protocol/ProtocolManifest.js -->
<g id="node24" class="node">
<title>protocol/ProtocolManifest.js</title>
<path fill="none" stroke="#cfffac" d="M212.83,-579.75C212.83,-579.75 46.17,-579.75 46.17,-579.75 42.21,-579.75 38.25,-575.79 38.25,-571.83 38.25,-571.83 38.25,-563.92 38.25,-563.92 38.25,-559.96 42.21,-556 46.17,-556 46.17,-556 212.83,-556 212.83,-556 216.79,-556 220.75,-559.96 220.75,-563.92 220.75,-563.92 220.75,-571.83 220.75,-571.83 220.75,-575.79 216.79,-579.75 212.83,-579.75"/>
<text xml:space="preserve" text-anchor="middle" x="129.5" y="-562.45" font-family="Arial" font-size="14.00" fill="#cfffac">protocol/ProtocolManifest.js</text>
</g>
<!-- protocol/audit/AuditSchema.js -->
<g id="node25" class="node">
<title>protocol/audit/AuditSchema.js</title>
<path fill="none" stroke="#cfffac" d="M219.21,-621.75C219.21,-621.75 39.79,-621.75 39.79,-621.75 35.83,-621.75 31.88,-617.79 31.88,-613.83 31.88,-613.83 31.88,-605.92 31.88,-605.92 31.88,-601.96 35.83,-598 39.79,-598 39.79,-598 219.21,-598 219.21,-598 223.17,-598 227.12,-601.96 227.12,-605.92 227.12,-605.92 227.12,-613.83 227.12,-613.83 227.12,-617.79 223.17,-621.75 219.21,-621.75"/>
<text xml:space="preserve" text-anchor="middle" x="129.5" y="-604.45" font-family="Arial" font-size="14.00" fill="#cfffac">protocol/audit/AuditSchema.js</text>
</g>
<!-- protocol/audit/AuditSummary.js -->
<g id="node26" class="node">
<title>protocol/audit/AuditSummary.js</title>
<path fill="none" stroke="#cfffac" d="M223.33,-663.75C223.33,-663.75 35.67,-663.75 35.67,-663.75 31.71,-663.75 27.75,-659.79 27.75,-655.83 27.75,-655.83 27.75,-647.92 27.75,-647.92 27.75,-643.96 31.71,-640 35.67,-640 35.67,-640 223.33,-640 223.33,-640 227.29,-640 231.25,-643.96 231.25,-647.92 231.25,-647.92 231.25,-655.83 231.25,-655.83 231.25,-659.79 227.29,-663.75 223.33,-663.75"/>
<text xml:space="preserve" text-anchor="middle" x="129.5" y="-646.45" font-family="Arial" font-size="14.00" fill="#cfffac">protocol/audit/AuditSummary.js</text>
</g>
<!-- protocol/audit/LogRotator.js -->
<g id="node27" class="node">
<title>protocol/audit/LogRotator.js</title>
<path fill="none" stroke="#cfffac" d="M211.71,-705.75C211.71,-705.75 47.29,-705.75 47.29,-705.75 43.33,-705.75 39.38,-701.79 39.38,-697.83 39.38,-697.83 39.38,-689.92 39.38,-689.92 39.38,-685.96 43.33,-682 47.29,-682 47.29,-682 211.71,-682 211.71,-682 215.67,-682 219.62,-685.96 219.62,-689.92 219.62,-689.92 219.62,-697.83 219.62,-697.83 219.62,-701.79 215.67,-705.75 211.71,-705.75"/>
<text xml:space="preserve" text-anchor="middle" x="129.5" y="-688.45" font-family="Arial" font-size="14.00" fill="#cfffac">protocol/audit/LogRotator.js</text>
</g>
<!-- services/gatewayService.js -->
<g id="node28" class="node">
<title>services/gatewayService.js</title>
<path fill="none" stroke="#cfffac" d="M210.58,-747.75C210.58,-747.75 48.42,-747.75 48.42,-747.75 44.46,-747.75 40.5,-743.79 40.5,-739.83 40.5,-739.83 40.5,-731.92 40.5,-731.92 40.5,-727.96 44.46,-724 48.42,-724 48.42,-724 210.58,-724 210.58,-724 214.54,-724 218.5,-727.96 218.5,-731.92 218.5,-731.92 218.5,-739.83 218.5,-739.83 218.5,-743.79 214.54,-747.75 210.58,-747.75"/>
<text xml:space="preserve" text-anchor="middle" x="129.5" y="-730.45" font-family="Arial" font-size="14.00" fill="#cfffac">services/gatewayService.js</text>
</g>
<!-- services/payoutService.js -->
<g id="node29" class="node">
<title>services/payoutService.js</title>
<path fill="none" stroke="#cfffac" d="M205.71,-789.75C205.71,-789.75 53.29,-789.75 53.29,-789.75 49.33,-789.75 45.38,-785.79 45.38,-781.83 45.38,-781.83 45.38,-773.92 45.38,-773.92 45.38,-769.96 49.33,-766 53.29,-766 53.29,-766 205.71,-766 205.71,-766 209.67,-766 213.62,-769.96 213.62,-773.92 213.62,-773.92 213.62,-781.83 213.62,-781.83 213.62,-785.79 209.67,-789.75 205.71,-789.75"/>
<text xml:space="preserve" text-anchor="middle" x="129.5" y="-772.45" font-family="Arial" font-size="14.00" fill="#cfffac">services/payoutService.js</text>
</g>
<!-- types/recipient.js -->
<g id="node30" class="node">
<title>types/recipient.js</title>
<path fill="none" stroke="#cfffac" d="M179.83,-831.75C179.83,-831.75 79.17,-831.75 79.17,-831.75 75.21,-831.75 71.25,-827.79 71.25,-823.83 71.25,-823.83 71.25,-815.92 71.25,-815.92 71.25,-811.96 75.21,-808 79.17,-808 79.17,-808 179.83,-808 179.83,-808 183.79,-808 187.75,-811.96 187.75,-815.92 187.75,-815.92 187.75,-823.83 187.75,-823.83 187.75,-827.79 183.79,-831.75 179.83,-831.75"/>
<text xml:space="preserve" text-anchor="middle" x="129.5" y="-814.45" font-family="Arial" font-size="14.00" fill="#cfffac">types/recipient.js</text>
</g>
<!-- types/transaction.js -->
<g id="node31" class="node">
<title>types/transaction.js</title>
<path fill="none" stroke="#cfffac" d="M187.33,-873.75C187.33,-873.75 71.67,-873.75 71.67,-873.75 67.71,-873.75 63.75,-869.79 63.75,-865.83 63.75,-865.83 63.75,-857.92 63.75,-857.92 63.75,-853.96 67.71,-850 71.67,-850 71.67,-850 187.33,-850 187.33,-850 191.29,-850 195.25,-853.96 195.25,-857.92 195.25,-857.92 195.25,-865.83 195.25,-865.83 195.25,-869.79 191.29,-873.75 187.33,-873.75"/>
<text xml:space="preserve" text-anchor="middle" x="129.5" y="-856.45" font-family="Arial" font-size="14.00" fill="#cfffac">types/transaction.js</text>
</g>
<!-- utils/formatCurrency.js -->
<g id="node32" class="node">
<title>utils/formatCurrency.js</title>
<path fill="none" stroke="#cfffac" d="M196.71,-915.75C196.71,-915.75 62.29,-915.75 62.29,-915.75 58.33,-915.75 54.38,-911.79 54.38,-907.83 54.38,-907.83 54.38,-899.92 54.38,-899.92 54.38,-895.96 58.33,-892 62.29,-892 62.29,-892 196.71,-892 196.71,-892 200.67,-892 204.62,-895.96 204.62,-899.92 204.62,-899.92 204.62,-907.83 204.62,-907.83 204.62,-911.79 200.67,-915.75 196.71,-915.75"/>
<text xml:space="preserve" text-anchor="middle" x="129.5" y="-898.45" font-family="Arial" font-size="14.00" fill="#cfffac">utils/formatCurrency.js</text>
</g>
<!-- utils/validateRecipient.js -->
<g id="node33" class="node">
<title>utils/validateRecipient.js</title>
<path fill="none" stroke="#cfffac" d="M201.58,-957.75C201.58,-957.75 57.42,-957.75 57.42,-957.75 53.46,-957.75 49.5,-953.79 49.5,-949.83 49.5,-949.83 49.5,-941.92 49.5,-941.92 49.5,-937.96 53.46,-934 57.42,-934 57.42,-934 201.58,-934 201.58,-934 205.54,-934 209.5,-937.96 209.5,-941.92 209.5,-941.92 209.5,-949.83 209.5,-949.83 209.5,-953.79 205.54,-957.75 201.58,-957.75"/>
<text xml:space="preserve" text-anchor="middle" x="129.5" y="-940.45" font-family="Arial" font-size="14.00" fill="#cfffac">utils/validateRecipient.js</text>
</g>
</g>
</svg>
